<svg width="1200" height="720" viewBox="0 0 1200 720" fill="none" xmlns="http://www.w3.org/2000/svg">
  <rect width="1200" height="720" fill="#FBFCFB"/>
  <text x="60" y="76" font-family="Arial, sans-serif" font-size="40" font-weight="700" fill="#163326">Sample Prediction Summary</text>
  <text x="62" y="118" font-family="Arial, sans-serif" font-size="22" fill="#607168">Illustrative public portfolio visual. Raw dataset images are not included.</text>

  <ellipse cx="280" cy="365" rx="160" ry="175" fill="#65A765" stroke="#2F7D4B" stroke-width="6"/>
  <line x1="280" y1="215" x2="280" y2="550" stroke="#F4FFF4" stroke-width="7"/>
  <line x1="280" y1="250" x2="190" y2="205" stroke="#F4FFF4" stroke-width="4"/>
  <line x1="280" y1="250" x2="370" y2="205" stroke="#F4FFF4" stroke-width="4"/>
  <line x1="280" y1="320" x2="190" y2="275" stroke="#F4FFF4" stroke-width="4"/>
  <line x1="280" y1="320" x2="370" y2="275" stroke="#F4FFF4" stroke-width="4"/>
  <line x1="280" y1="420" x2="190" y2="375" stroke="#F4FFF4" stroke-width="4"/>
  <line x1="280" y1="420" x2="370" y2="375" stroke="#F4FFF4" stroke-width="4"/>
  <circle cx="205" cy="300" r="15" fill="#C48B2B"/>
  <circle cx="345" cy="345" r="15" fill="#C48B2B"/>
  <circle cx="245" cy="430" r="15" fill="#C48B2B"/>
  <circle cx="320" cy="250" r="15" fill="#C48B2B"/>
  <circle cx="185" cy="405" r="15" fill="#C48B2B"/>

  <rect x="560" y="185" width="520" height="375" rx="26" fill="#FFFFFF" stroke="#D6DFDA" stroke-width="3"/>
  <text x="610" y="255" font-family="Arial, sans-serif" font-size="30" font-weight="700" fill="#66746E">Prediction</text>
  <text x="610" y="335" font-family="Arial, sans-serif" font-size="56" font-weight="700" fill="#163326">Target_Spot</text>
  <text x="610" y="405" font-family="Arial, sans-serif" font-size="30" font-weight="700" fill="#2F7D4B">Confidence: 96.3%</text>
  <text x="610" y="455" font-family="Arial, sans-serif" font-size="30" font-weight="700" fill="#2867B2">Decision: accepted</text>
  <text x="610" y="515" font-family="Arial, sans-serif" font-size="22" fill="#607168">Calibration + TTA enabled</text>
</svg>
