<svg width="900" height="1200" viewBox="0 0 900 1200" fill="none" xmlns="http://www.w3.org/2000/svg">
  <rect width="900" height="1200" fill="#EEF3F0"/>
  <rect x="250" y="60" width="400" height="1080" rx="52" fill="#111827"/>
  <rect x="272" y="105" width="356" height="990" rx="34" fill="#FFFFFF"/>
  <path d="M272 139C272 120.222 287.222 105 306 105H594C612.778 105 628 120.222 628 139V245H272V139Z" fill="#2F7D4B"/>
  <text x="315" y="165" font-family="Arial, sans-serif" font-size="38" font-weight="700" fill="#FFFFFF">Tomato Scan</text>
  <text x="315" y="208" font-family="Arial, sans-serif" font-size="18" fill="#DFF4E5">Greenhouse testing</text>

  <rect x="315" y="295" width="270" height="270" rx="28" fill="#EAF6EF" stroke="#C6DFCF" stroke-width="3"/>
  <ellipse cx="452" cy="428" rx="68" ry="96" fill="#6BAE6D" stroke="#2F7D4B" stroke-width="5"/>
  <line x1="452" y1="345" x2="452" y2="535" stroke="#FFFFFF" stroke-width="5"/>
  <circle cx="416" cy="401" r="12" fill="#C68A2A"/>
  <circle cx="496" cy="451" r="12" fill="#C68A2A"/>

  <rect x="315" y="620" width="270" height="210" rx="24" fill="#F9FBFA" stroke="#D6DFDA" stroke-width="2"/>
  <text x="345" y="675" font-family="Arial, sans-serif" font-size="27" font-weight="700" fill="#163326">Prediction Result</text>
  <text x="345" y="745" font-family="Arial, sans-serif" font-size="38" font-weight="700" fill="#2F7D4B">Target Spot</text>
  <text x="345" y="795" font-family="Arial, sans-serif" font-size="22" fill="#1F2933">Confidence 96.3%</text>

  <rect x="345" y="875" width="210" height="65" rx="28" fill="#E3F5EA" stroke="#2F7D4B" stroke-width="2"/>
  <text x="450" y="917" text-anchor="middle" font-family="Arial, sans-serif" font-size="28" font-weight="700" fill="#2F7D4B">Accepted</text>
  <text x="315" y="1015" font-family="Arial, sans-serif" font-size="18" fill="#66746E">Flutter + Firebase prototype</text>
</svg>
